#!OML:ASF E:\emotionWalksFemale\Project 1\Capture day 1\Session 1\Female1.ASF
:FULLY-SPECIFIED
:DEGREES
1351
root 7.60508 15.3144 -36.7022 180.899 -23.5746 -177.046
lowerback 4.95599 2.76012 1.76626
upperback -6.09595 3.5954 -1.24978
thorax -9.02605 1.50947 -2.75118
lowerneck -14.9216 3.22972 0.153303
upperneck 18.7924 4.5168 -1.64329
head 8.34493 1.86135 -0.0724305
rclavicle -4.96962e-014 -3.18055e-015
rhumerus -20.6832 16.9318 -77.9509
rradius 22.4169
rwrist 23.7156
rhand -13.1743 -54.0111
rfingers 7.12502
rthumb 12.9252 -83.5908
lclavicle -4.96962e-014 -3.18055e-015
lhumerus -41.7968 -11.0065 85.06
lradius 23.5376
lwrist -33.9604
lhand 0.674218 -38.0867
lfingers 7.12502
lthumb 26.236 -9.8803
rfemur -6.62137 2.91843 20.9906
rtibia 34.9388
rfoot -25.9535 -34.5597
rtoes 5.74211
lfemur -9.4732 -14.6372 -26.1997
ltibia 32.0372
lfoot -27.418 17.9715
ltoes 7.89692
1352
root 7.57641 15.3184 -36.714 180.95 -24.791 -176.851
lowerback 4.90643 2.97553 2.05601
upperback -6.06986 3.926 -1.14833
thorax -8.93784 1.66071 -2.84061
lowerneck -13.3821 3.52193 2.19979
upperneck 17.3716 4.88718 -3.9007
head 7.71508 1.99546 -1.14221
rclavicle 2.31584e-014 -1.43125e-014
rhumerus -22.3661 17.6076 -79.4771
rradius 22.4556
rwrist 23.9899
rhand -12.8445 -54.0517
rfingers 7.12502
rthumb 13.2431 -83.611
lclavicle 2.31584e-014 -1.43125e-014
lhumerus -44.298 -11.7254 85.7943
lradius 23.8322
lwrist -33.5358
lhand 0.950884 -37.9769
lfingers 7.12502
lthumb 26.5008 -9.81023
rfemur -7.41168 1.9904 21.0765
rtibia 36.5113
rfoot -24.7103 -34.2001
rtoes 8.88434
lfemur -9.39647 -15.49 -26.1056
ltibia 31.6644
lfoot -27.0664 17.7044
ltoes 10.0647
1353
root 7.54625 15.3245 -36.7261 180.982 -25.9098 -176.897
lowerback 4.92598 3.26948 2.17145
upperback -5.98433 4.34664 -1.09392
thorax -8.8268 1.86882 -2.89441
lowerneck -14.8496 3.6098 0.095553
upperneck 18.8452 5.05522 -1.60196
head 8.35205 2.11807 0.0125685
rclavicle -5.87409e-014 -2.3059e-014
rhumerus -23.958 18.4626 -80.9854
rradius 22.5696
rwrist 24.3353
rhand -11.9593 -54.0903
rfingers 7.12502
rthumb 14.0962 -83.5922
lclavicle -5.87409e-014 -2.3059e-014
lhumerus -46.5298 -11.9627 86.203
lradius 23.9781
lwrist -33.5322
lhand 1.43372 -37.7105
lfingers 7.12502
lthumb 26.9629 -9.61433
rfemur -8.15338 1.21819 20.9131
rtibia 38.2455
rfoot -24.2063 -34.1399
rtoes 11.75
lfemur -9.11152 -16.3563 -26.3055
ltibia 31.2388
lfoot -26.8101 17.7364
ltoes 10.0666
1354
root 7.52425 15.3307 -36.7489 181.229 -26.9664 -177.261
lowerback 4.8329 3.64556 1.75857
upperback -5.92752 4.81904 -1.07711
thorax -8.716 2.13332 -2.69312
lowerneck -13.8873 3.84463 1.40036
upperneck 17.9015 5.37764 -3.13999
head 7.9515 2.23624 -0.696632
rclavicle -8.9304e-014 -3.18055e-014
rhumerus -25.5065 19.0946 -82.426
rradius 22.7389
rwrist 25.2256
rhand -10.8344 -53.6727
rfingers 7.12502
rthumb 15.18 -83.0959
lclavicle -8.9304e-014 -3.18055e-014
lhumerus -48.2912 -11.4605 85.894
lradius 23.8448
lwrist -34.0566
lhand 1.25417 -38.2111
lfingers 7.12502
lthumb 26.7911 -10.0886
rfemur -9.11469 0.402811 20.483
rtibia 40.1633
rfoot -22.6746 -33.9993
rtoes 12.5862
lfemur -8.86728 -17.0727 -26.707
ltibia 30.6741
lfoot -26.5162 17.4604
ltoes 10.4935
1355
root 7.50429 15.3287 -36.7658 181.344 -28.148 -177.665
lowerback 4.94863 3.95497 1.32895
upperback -5.80347 5.20933 -1.06592
thorax -8.66746 2.35923 -2.49275
lowerneck -14.4285 4.15562 1.45552
upperneck 18.2638 5.7588 -2.86645
head 8.17106 2.43966 -0.559019
rclavicle -8.77137e-014 -2.98177e-014
rhumerus -26.8935 19.9913 -84.0366
rradius 22.9277
rwrist 25.9511
rhand -10.6252 -52.8535
rfingers 7.12502
rthumb 15.3815 -82.2614
lclavicle -8.77137e-014 -2.98177e-014
lhumerus -49.8819 -10.5056 84.9706
lradius 23.9294
lwrist -34.8526
lhand 1.0917 -38.7917
lfingers 7.12502
lthumb 26.6356 -10.6454
rfemur -9.9394 -0.611258 19.9905
rtibia 42.1759
rfoot -21.9712 -33.2083
rtoes 15.0384
lfemur -8.46793 -17.668 -27.1724
ltibia 30.065
lfoot -25.9516 17.0315
ltoes 11.1732
1356
root 7.48334 15.3301 -36.7799 181.447 -29.5969 -178.252
lowerback 5.17091 4.12405 0.836987
upperback -5.61977 5.40316 -1.11238
thorax -8.63068 2.49122 -2.30307
lowerneck -14.2769 4.39333 1.95061
upperneck 18.2357 6.02505 -3.09683
head 8.16428 2.58109 -0.688046
rclavicle 2.08724e-015 1.23246e-014
rhumerus -28.2179 21.7552 -86.059
rradius 23.2134
rwrist 25.6039
rhand -11.2763 -52.2233
rfingers 7.12502
rthumb 14.7543 -81.6782
lclavicle 2.08724e-015 1.23246e-014
lhumerus -51.3885 -10.5965 84.6101
lradius 23.7179
lwrist -34.238
lhand 0.759261 -39.1206
lfingers 7.12502
lthumb 26.3174 -10.9263
rfemur -10.5485 -1.21814 19.3991
rtibia 44.027
rfoot -21.3056 -32.5654
rtoes 19.4901
lfemur -7.98179 -18.2147 -27.8093
ltibia 29.4646
lfoot -25.1302 16.5795
ltoes 10.6058
1357
root 7.446 15.3285 -36.775 181.642 -31.1723 -178.61
lowerback 5.40856 4.24534 1.04055
upperback -5.58064 5.58526 -1.2272
thorax -8.68964 2.5646 -2.57603
lowerneck -14.1074 4.69387 2.60321
upperneck 18.2462 6.38336 -3.52364
head 8.18469 2.75538 -0.897187
rclavicle -3.07619e-014 -5.56597e-015
rhumerus -29.4591 23.2723 -88.1012
rradius 23.4548
rwrist 25.1141
rhand -11.6236 -51.6461
rfingers 7.12502
rthumb 14.4197 -81.1252
lclavicle -3.07619e-014 -5.56597e-015
lhumerus -52.8633 -10.3535 83.7407
lradius 23.5739
lwrist -33.9191
lhand 0.674856 -39.547
lfingers 7.12502
lthumb 26.2366 -11.3407
rfemur -11.3313 -2.04181 18.9475
rtibia 45.7738
rfoot -19.3548 -32.0075
rtoes 21.6802
lfemur -7.81188 -18.8383 -28.1997
ltibia 29.1069
lfoot -24.644 15.8789
ltoes 10.2164
1358
root 7.42983 15.345 -36.8026 181.47 -32.5841 -178.256
lowerback 5.43521 4.43631 1.20543
upperback -5.55864 5.87726 -1.05831
thorax -8.67008 2.70607 -2.52591
lowerneck -13.8312 5.02177 3.41981
upperneck 18.3 6.75241 -3.9784
head 8.2121 2.94352 -1.143
rclavicle -1.51076e-014 2.50469e-014
rhumerus -30.4308 24.1185 -89.9889
rradius 23.5854
rwrist 24.6358
rhand -11.2277 -50.9644
rfingers 7.12502
rthumb 14.8012 -80.4158
lclavicle -1.51076e-014 2.50469e-014
lhumerus -54.4729 -10.6665 83.0866
lradius 23.7449
lwrist -33.0447
lhand 1.79725 -38.3359
lfingers 7.12502
lthumb 27.3107 -10.294
rfemur -11.8737 -1.5387 19.4955
rtibia 47.1525
rfoot -18.3294 -31.9978
rtoes 21.0015
lfemur -7.59713 -19.3542 -27.8168
ltibia 28.7451
lfoot -24.5761 14.8099
ltoes 11.5158
1359
root 7.41568 15.3339 -36.8323 181.775 -33.8655 -178.225
lowerback 5.0032 4.73745 1.11325
upperback -5.55388 6.27212 -0.990526
thorax -8.41199 2.9144 -2.40929
lowerneck -13.6619 5.21029 3.75891
upperneck 18.2956 6.98035 -4.15076
head 8.2088 3.06172 -1.23196
rclavicle 5.40197e-014 -2.78299e-015
rhumerus -31.2005 24.8821 -91.7318
rradius 23.7181
rwrist 23.9978
rhand -10.77 -50.42
rfingers 7.12502
rthumb 15.242 -79.8385
lclavicle 5.40197e-014 -2.78299e-015
lhumerus -56.0367 -11.6981 82.8821
lradius 24.0421
lwrist -31.9175
lhand 2.33771 -37.1281
lfingers 7.12502
lthumb 27.8275 -9.16873
rfemur -12.9326 -2.26859 19.4259
rtibia 48.4922
rfoot -17.0474 -30.1219
rtoes 17.1385
lfemur -7.8815 -19.658 -27.5967
ltibia 28.6135
lfoot -24.5027 13.6803
ltoes 11.952
